<?xml version="1.0" encoding="UTF-8"?> <!-- Generator: Adobe Illustrator 25.0.1, SVG Export Plug-In . SVG Version: 6.00 Build 0) --> <svg xmlns="http://www.w3.org/2000/svg" xmlns:xlink="http://www.w3.org/1999/xlink" version="1.1" id="Layer_1" x="0px" y="0px" viewBox="0 0 400 245" style="enable-background:new 0 0 400 245;" xml:space="preserve"> <style type="text/css"> .st0{fill:#CCCCCC;} .st1{fill:#5C94B8;} .st2{fill:#63ABD2;} .st3{fill:#42DBF1;} .st4{fill:#42C7E2;} .st5{fill:#11B2D6;} .st6{fill:#278AB3;} </style> <g> <g> <g> <g> <path d="M96.8,136.2c-3.3,3.2-7.4,4.8-12.2,4.8s-8.9-1.6-12.2-4.8c-3.3-3.2-4.9-7.2-4.9-12c0-4.8,1.6-8.8,4.9-12 c3.3-3.2,7.4-4.8,12.2-4.8s8.9,1.6,12.2,4.8c3.3,3.2,4.9,7.2,4.9,12C101.8,129,100.1,133,96.8,136.2z M92.8,115.9 c-2.2-2.3-4.9-3.4-8.2-3.4c-3.2,0-6,1.1-8.2,3.4c-2.2,2.3-3.3,5.1-3.3,8.4c0,3.3,1.1,6.1,3.3,8.4c2.2,2.3,4.9,3.4,8.2,3.4 c3.2,0,6-1.1,8.2-3.4c2.2-2.3,3.3-5.1,3.3-8.4C96.1,121,95,118.2,92.8,115.9z"></path> <path d="M122.4,115.6c3.3,0,6.2,1.1,8.5,3.4c2.4,2.3,3.5,5.4,3.5,9.2c0,3.8-1.2,6.9-3.5,9.3c-2.3,2.4-5.1,3.6-8.2,3.6 c-3.1,0-5.9-1.4-8.4-4.1v12.8h-5.2V116h5.2v4.3C116.4,117.2,119.1,115.6,122.4,115.6z M114.3,128.4c0,2.4,0.7,4.3,2.1,5.8 c1.4,1.5,3.2,2.3,5.2,2.3c2,0,3.8-0.7,5.4-2.2c1.5-1.5,2.3-3.4,2.3-5.8c0-2.4-0.7-4.3-2.2-5.9c-1.5-1.6-3.3-2.3-5.4-2.3 c-2.1,0-3.8,0.8-5.3,2.3C115,124.1,114.3,126,114.3,128.4z"></path> <path d="M164.6,130.6h-19.4c0.1,1.8,0.9,3.3,2.5,4.4c1.5,1.1,3.3,1.7,5.2,1.7c3.1,0,5.5-1,7.1-2.9l3,3.3 c-2.7,2.8-6.1,4.1-10.4,4.1c-3.5,0-6.4-1.2-8.9-3.5c-2.4-2.3-3.7-5.4-3.7-9.3c0-3.9,1.2-7,3.7-9.3c2.5-2.3,5.4-3.4,8.8-3.4 c3.4,0,6.2,1,8.6,3c2.4,2,3.5,4.8,3.5,8.4V130.6z M145.2,126.5h14.2c0-2.1-0.7-3.7-2-4.8c-1.3-1.1-2.9-1.7-4.8-1.7 c-1.9,0-3.6,0.6-5.1,1.7C146,123,145.2,124.6,145.2,126.5z"></path> <path d="M176.7,127.3v13.4h-5.2V116h5.2v4.5c0.8-1.5,2-2.7,3.5-3.6c1.5-0.9,3.1-1.3,4.8-1.3c2.8,0,5,0.9,6.8,2.6 c1.7,1.7,2.6,4.2,2.6,7.4v15.2h-5.2v-13.6c0-4.6-1.9-6.8-5.7-6.8c-1.8,0-3.4,0.6-4.7,1.8C177.4,123.3,176.7,125,176.7,127.3z"></path> <path d="M225.4,111.1c2.3,1.9,3.4,4.9,3.4,8.9c0,4-1.2,7-3.5,8.8c-2.3,1.9-5.9,2.8-10.7,2.8h-4.3v9.1H203v-32.5h11.5 C219.5,108.2,223.1,109.2,225.4,111.1z M220,123.9c0.9-1,1.3-2.4,1.3-4.3c0-1.9-0.6-3.2-1.7-4c-1.1-0.8-2.9-1.2-5.3-1.2h-4.1 v10.9h4.9C217.5,125.4,219.2,124.9,220,123.9z"></path> <path d="M261.6,136.4c-3.1,3.1-7,4.6-11.6,4.6c-4.6,0-8.5-1.5-11.6-4.6c-3.1-3.1-4.7-6.9-4.7-11.5c0-4.6,1.6-8.4,4.7-11.5 c3.1-3.1,7-4.6,11.6-4.6c4.6,0,8.5,1.5,11.6,4.6c3.1,3.1,4.7,6.9,4.7,11.5C266.3,129.6,264.8,133.4,261.6,136.4z M259.3,125 c0-2.8-0.9-5.1-2.7-7.1c-1.8-2-4-2.9-6.6-2.9c-2.6,0-4.8,1-6.6,2.9c-1.8,2-2.7,4.3-2.7,7.1c0,2.8,0.9,5.1,2.7,7.1 c1.8,1.9,4,2.9,6.6,2.9c2.6,0,4.8-1,6.6-2.9C258.4,130.1,259.3,127.8,259.3,125z"></path> <path d="M282.1,126.9l5.8-18.7h7.6l5.7,18.7l6.5-18.7h7.9l-11.4,32.5h-5.4l-7.1-22.6l-7.1,22.6h-5.4l-11.4-32.5h7.9L282.1,126.9 z"></path> <path d="M344,108.2v6.5h-16.2v6.7h14.6v6.2h-14.6v6.7h16.7v6.4h-24v-32.5H344z"></path> <path d="M377.4,119c0,5.2-2.1,8.6-6.2,10.1l8.2,11.6h-8.9l-7.2-10.4h-5v10.4H351v-32.5h12.3c5.1,0,8.7,0.9,10.8,2.6 C376.3,112.5,377.4,115.2,377.4,119z M368.6,122.9c0.9-0.8,1.4-2.1,1.4-3.8c0-1.8-0.5-3-1.4-3.6c-0.9-0.7-2.6-1-4.9-1h-5.4v9.6 h5.3C366,124.1,367.7,123.7,368.6,122.9z"></path> </g> </g> <path class="st0" d="M384.5,117.7v-8h-2.7c-0.1,0-0.2,0-0.2-0.1c-0.1-0.1-0.1-0.1-0.1-0.2c0-0.1,0-0.2,0.1-0.2 c0.1-0.1,0.1-0.1,0.2-0.1h6c0.1,0,0.2,0,0.2,0.1c0.1,0.1,0.1,0.1,0.1,0.2c0,0.1,0,0.2-0.1,0.2c-0.1,0.1-0.1,0.1-0.2,0.1h-2.7v8 c0,0.1,0,0.2-0.1,0.2c-0.1,0.1-0.1,0.1-0.2,0.1c-0.1,0-0.2,0-0.2-0.1C384.5,117.9,384.5,117.8,384.5,117.7z"></path> <path class="st0" d="M397.4,117.7v-7.4l-2.9,4c-0.1,0.1-0.1,0.1-0.3,0.1h0c-0.1,0-0.2,0-0.3-0.1l-2.9-4v7.4c0,0.1,0,0.2-0.1,0.2 c-0.1,0.1-0.1,0.1-0.2,0.1c-0.1,0-0.2,0-0.2-0.1c-0.1-0.1-0.1-0.1-0.1-0.2v-8.3c0-0.1,0-0.2,0.1-0.2l0,0c0.2-0.1,0.3-0.1,0.4,0.1 l3.2,4.4l3.2-4.4c0-0.1,0.1-0.1,0.2-0.1c0.1,0,0.2,0,0.2,0c0.1,0.1,0.1,0.2,0.1,0.3v8.3c0,0.1,0,0.2-0.1,0.2 c-0.1,0.1-0.1,0.1-0.2,0.1c-0.1,0-0.2,0-0.2-0.1C397.4,117.9,397.4,117.8,397.4,117.7z"></path> </g> <g> <polygon class="st1" points="58.8,106.5 30.4,90.5 30.4,90.5 2,106.5 2,106.5 2,138.4 2,138.5 30.3,154.5 30.4,154.5 58.8,138.5 58.8,138.5 58.8,106.5 "></polygon> <g> <polygon class="st2" points="2,138.4 2,138.5 30.3,154.5 30.5,123.2 "></polygon> <polygon class="st3" points="58.7,106.5 30.4,90.5 30.4,123.2 "></polygon> <polygon class="st4" points="58.8,106.5 58.8,106.5 30.4,123.2 58.8,138.5 58.8,138.5 "></polygon> <polygon class="st5" points="30.3,154.5 30.4,154.5 58.7,138.5 30.4,123.2 "></polygon> <polygon class="st1" points="2,106.5 2,106.5 2,138.4 30.5,123.2 "></polygon> <polygon class="st6" points="30.4,90.5 30.4,90.5 2,106.5 30.4,123.2 "></polygon> </g> </g> </g> </svg> 