<svg xmlns="http://www.w3.org/2000/svg" xmlns:xlink="http://www.w3.org/1999/xlink" viewBox="0 0 302.51 210.37"><defs><clipPath id="a" transform="translate(26.32 17.71)"><path d="M234.31,162.74H13.58a9,9,0,0,1-9-9V14a9,9,0,0,1,9-9H234.31a9,9,0,0,1,9,9V153.74a9,9,0,0,1-9,9" style="fill:none"/></clipPath><linearGradient id="b" x1="-183.37" y1="451.58" x2="-182.37" y2="451.58" gradientTransform="translate(-71058.23 -28734.94) rotate(-90) scale(157.69)" gradientUnits="userSpaceOnUse"><stop offset="0" stop-color="#007c8f"/><stop offset="0.37" stop-color="#007088"/><stop offset="1" stop-color="#005377"/></linearGradient></defs><title>wekan-1</title><path d="M239.54,10.95H20.2a9,9,0,0,0-9,9V158.79a9,9,0,0,0,9,9H239.54a9,9,0,0,0,9-9V19.95a9,9,0,0,0-9-9" transform="translate(26.32 17.71)" style="fill:#e3e3e3"/><g style="clip-path:url(#a)"><rect x="30.9" y="22.76" width="238.73" height="157.69" style="fill:url(#b)"/><path d="M198.74,120.54V120h-149a2.5,2.5,0,0,1-2.5-2.5V48.47a2.5,2.5,0,0,1,2.5-2.5h149a2.5,2.5,0,0,1,2.5,2.5v69.07a2.5,2.5,0,0,1-2.5,2.5v1a3.5,3.5,0,0,0,3.5-3.5V48.47a3.5,3.5,0,0,0-3.5-3.5h-149a3.5,3.5,0,0,0-3.5,3.5v69.07a3.5,3.5,0,0,0,3.5,3.5h149Z" transform="translate(26.32 17.71)" style="fill:#7addfc"/><path d="M116.73,38.19v-.5H49.61a2.5,2.5,0,0,1-2.5-2.5v-49.4a2.5,2.5,0,0,1,2.5-2.5h67.12a2.5,2.5,0,0,1,2.5,2.5v49.4a2.5,2.5,0,0,1-2.5,2.5v1a3.5,3.5,0,0,0,3.5-3.5v-49.4a3.5,3.5,0,0,0-3.5-3.5H49.61a3.5,3.5,0,0,0-3.5,3.5v49.4a3.5,3.5,0,0,0,3.5,3.5h67.12Z" transform="translate(26.32 17.71)" style="fill:#529fdd"/><path d="M116.73,183.21v-.5H49.61a2.5,2.5,0,0,1-2.5-2.5v-49.4a2.5,2.5,0,0,1,2.5-2.5h67.12a2.5,2.5,0,0,1,2.5,2.5v49.4a2.5,2.5,0,0,1-2.5,2.5v1a3.5,3.5,0,0,0,3.5-3.5v-49.4a3.5,3.5,0,0,0-3.5-3.5H49.61a3.5,3.5,0,0,0-3.5,3.5v49.4a3.5,3.5,0,0,0,3.5,3.5h67.12Z" transform="translate(26.32 17.71)" style="fill:#529fdd"/><path d="M198.11,38.19v-.5H131a2.5,2.5,0,0,1-2.5-2.5v-49.4a2.5,2.5,0,0,1,2.5-2.5h67.12a2.5,2.5,0,0,1,2.5,2.5v49.4a2.5,2.5,0,0,1-2.5,2.5v1a3.5,3.5,0,0,0,3.5-3.5v-49.4a3.5,3.5,0,0,0-3.5-3.5H131a3.5,3.5,0,0,0-3.5,3.5v49.4a3.5,3.5,0,0,0,3.5,3.5h67.12Z" transform="translate(26.32 17.71)" style="fill:#529fdd"/><path d="M198.11,183.21v-.5H131a2.5,2.5,0,0,1-2.5-2.5v-49.4a2.5,2.5,0,0,1,2.5-2.5h67.12a2.5,2.5,0,0,1,2.5,2.5v49.4a2.5,2.5,0,0,1-2.5,2.5v1a3.5,3.5,0,0,0,3.5-3.5v-49.4a3.5,3.5,0,0,0-3.5-3.5H131a3.5,3.5,0,0,0-3.5,3.5v49.4a3.5,3.5,0,0,0,3.5,3.5h67.12Z" transform="translate(26.32 17.71)" style="fill:#529fdd"/><path d="M272.69,77.22v-.5H211.84a2.5,2.5,0,0,1-2.5-2.5V-12.63a2.5,2.5,0,0,1,2.5-2.5h60.84a2.5,2.5,0,0,1,2.5,2.5V74.22a2.5,2.5,0,0,1-2.5,2.5v1a3.5,3.5,0,0,0,3.5-3.5V-12.63a3.5,3.5,0,0,0-3.5-3.5H211.84a3.5,3.5,0,0,0-3.5,3.5V74.22a3.5,3.5,0,0,0,3.5,3.5h60.84Z" transform="translate(26.32 17.71)" style="fill:#529fdd"/><path d="M272.69,192.16v-.5H211.84a2.5,2.5,0,0,1-2.5-2.5V87.47a2.5,2.5,0,0,1,2.5-2.5h60.84a2.5,2.5,0,0,1,2.5,2.5V189.16a2.5,2.5,0,0,1-2.5,2.5v1a3.5,3.5,0,0,0,3.5-3.5V87.47a3.5,3.5,0,0,0-3.5-3.5H211.84a3.5,3.5,0,0,0-3.5,3.5V189.16a3.5,3.5,0,0,0,3.5,3.5h60.84Z" transform="translate(26.32 17.71)" style="fill:#529fdd"/><path d="M36.68,77.22v-.5h-59.5a2.5,2.5,0,0,1-2.5-2.5V-12.63a2.5,2.5,0,0,1,2.5-2.5h59.5a2.5,2.5,0,0,1,2.5,2.5V74.22a2.5,2.5,0,0,1-2.5,2.5v1a3.5,3.5,0,0,0,3.5-3.5V-12.63a3.5,3.5,0,0,0-3.5-3.5h-59.5a3.5,3.5,0,0,0-3.5,3.5V74.22a3.5,3.5,0,0,0,3.5,3.5h59.5Z" transform="translate(26.32 17.71)" style="fill:#529fdd"/><path d="M36.68,192.16v-.5h-59.5a2.5,2.5,0,0,1-2.5-2.5V87.47a2.5,2.5,0,0,1,2.5-2.5h59.5a2.5,2.5,0,0,1,2.5,2.5V189.16a2.5,2.5,0,0,1-2.5,2.5v1a3.5,3.5,0,0,0,3.5-3.5V87.47a3.5,3.5,0,0,0-3.5-3.5h-59.5a3.5,3.5,0,0,0-3.5,3.5V189.16a3.5,3.5,0,0,0,3.5,3.5h59.5Z" transform="translate(26.32 17.71)" style="fill:#529fdd"/><path d="M182.3,90.73a1.47,1.47,0,0,0-.83.33q-3.12,8.16-4.95,7.92c-.35,0-.56-.37-.58-1a10.56,10.56,0,0,1,.31-2.53c.23-1.06.5-2.12.78-3.19s.56-2.28.89-3.61.6-2.38.75-3.14a1.14,1.14,0,0,0-.47-1.28,2.47,2.47,0,0,0-1.89-.06c-3.55.79-6.33,3.92-8.31,9.36q.91-6.36,1.14-7.17c.25-1.11.45-1.82.56-2.14a9.23,9.23,0,0,0-1.81-.11,17.4,17.4,0,0,0-3.45.33c-1.27.24-1.93.54-2,.92-.22,1.92-.24,3.93-.44,5.92s-.32,3.69-.44,5.31a10.66,10.66,0,0,1-1.25,1.69c-.53.55-1,.81-1.42.75-1-.16-.37-3,1.53-8.64,1.45-4.33.71-6.16-5.22-6.2a10.64,10.64,0,0,0-5.47,1.67,12.25,12.25,0,0,0-5.33,6.95c-.09.31-.16.6-.22.89-.28.5-.56,1-.83,1.36A7,7,0,0,1,141.71,97a1.68,1.68,0,0,1-1.14.33c-1-.16-2.28-1-3.7-2.58-1-1.09-2.86-3-3.78-4.14,5.64-10.17,20.73-12.5,25.06-12.5,1.36,0,1.41-6.25,0-6.25-17.55,0-25.36,14.85-27.09,19.95.15-1.65.27-2.71.5-4.86s.4-3.85.53-5.11.26-2.73.42-4.36.32-2.91.42-3.86.23-2,.36-3.11.23-2,.33-2.69l.31-1.94c.1-.65.18-1.19.28-1.58a.94.94,0,0,0-.69-1.31,4.54,4.54,0,0,0-.94-.06,1.85,1.85,0,0,0-.94.36,1.93,1.93,0,0,0-.69.94q-3.71,8.74-6.14,27.17a13.66,13.66,0,0,1-4.25,6,7.66,7.66,0,0,1-5.33,1.86,3.35,3.35,0,0,1-2.83-2.42,9.5,9.5,0,0,1-.19-5.47c.86-4.11,2-6.17,3.33-6.17.91,0,.95,1.54.08,4.64-.66,2.21-1.58,3.69-2.75,4.42-.41.25-.58.46-.53.58s.36.19.92,0a19.18,19.18,0,0,0,5.56-2.31,6.14,6.14,0,0,0,3-3.28A3.08,3.08,0,0,0,120.55,86a7.24,7.24,0,0,0-4.33-1.53,11.22,11.22,0,0,0-5.08,1l.11-.19A47.91,47.91,0,0,0,117,73.28c1.15-3.79.83-6.56-.94-8.33a6.71,6.71,0,0,0-2.92-1.25c-2.45-.66-5.21-1.51-3.08,1.25a5.3,5.3,0,0,1,.67,1.61,16.49,16.49,0,0,1-.47,7.47,54.2,54.2,0,0,1-3.42,9.56,56.56,56.56,0,0,1-5,8.83,18.19,18.19,0,0,1-5.25,5.36,2.85,2.85,0,0,1-.08-.67,14.35,14.35,0,0,1,0-1.61c0-.54.08-1,.11-1.25.39-2.6.89-5.36,1.5-8.28s1.21-5.55,1.78-7.92c.41-1.49.67-2.61.81-3.33a1.93,1.93,0,0,0-.25-1.61,5,5,0,0,0-1.69-1.22c-.53-.27-1.19-.62-2-1.08-1.65-.95-1.76-.93-2.22.75s-1.31,3.68-2.44,6.56S89.73,84,88.35,87.06a79,79,0,0,1-4,7.83c-1.27,2.14-2.3,3.24-3.08,3.28a.4.4,0,0,1-.33-.33,2.9,2.9,0,0,1-.08-.72A11.64,11.64,0,0,1,81,95.51a10.75,10.75,0,0,1,.25-1.25c.35-1.74.83-3.78,1.44-6.14s1.24-4.72,1.89-7,1.19-4.25,1.64-5.83a25.49,25.49,0,0,0,1.14-4.06,1.71,1.71,0,0,0-1.11-1.72c-.66-.35-1.68-1-3.11-1.81a2.41,2.41,0,0,0-2.56-.19c-2.66,1-5.33,2.1-8.06,3.39a67.36,67.36,0,0,0-8.39,4.67c-2.39,1.59-3.91,3-4.58,4.31a4.85,4.85,0,0,0,.25,4.78,6.86,6.86,0,0,0,2,2.22c3.24,2.23,2.16.94,2.47-1.64a6.58,6.58,0,0,1,.92-2.64,23.7,23.7,0,0,1,6-6.22,39.72,39.72,0,0,1,9.7-5.58c-.65,2.39-1.34,5-2.08,7.78s-1.46,5.52-2.08,8.11-1.09,4.78-1.39,6.53a10.1,10.1,0,0,0-.22,2.39A4.49,4.49,0,0,0,76,97.84a6.38,6.38,0,0,0,1.92,1.75,4.35,4.35,0,0,0,2.33.69c1.68-.1,3.32-1.23,4.89-3.36a40.46,40.46,0,0,0,4.36-7.81q2-4.62,3.5-9c-.49,2.37-.94,4.71-1.33,7s-.67,4.33-.86,6.08a12,12,0,0,0-.08,2.39,4.47,4.47,0,0,0,1,2.28,6.64,6.64,0,0,0,2,1.72,5.63,5.63,0,0,0,2.45.72q2.48,0,6.78-4.42,1.05-1.07,2.08-2.25a5.35,5.35,0,0,0,2.11,4.92,11.14,11.14,0,0,0,6.56,2.25,11,11,0,0,0,7.67-2.69,15,15,0,0,0,3.06-3.5,19.65,19.65,0,0,0-.17,5.14c0,.25.56.48,1.75.64a22.17,22.17,0,0,0,3.53.17c1.14,0,1.72-.14,1.72-.33-.1-.69-.21-2.2-.3-3.83,2.38,2.53,5.24,4.38,7.42,4.22,1.27-.09,2.8-1.09,4.53-3.06A19,19,0,0,0,144,96a4.56,4.56,0,0,0,1.14,2.42,5.15,5.15,0,0,0,4.39,1.89c1.74-.18,3.1-1.57,4.14-4.19a16.89,16.89,0,0,1,1.11-2.42c.67-1.09.52-.37.42.14-.33,1.67-.72,4,.33,5.47a2.65,2.65,0,0,0,2.5,1.33c1-.14,2.16-1,3.42-2.61a5.18,5.18,0,0,0,.05,1.47c.1.25.62.47,1.61.61a16.17,16.17,0,0,0,2.86.17c.91,0,1.36-.14,1.36-.33.8-3.5,1.42-6.5,4.28-10.25.1,0,.14,0,.17,0a.84.84,0,0,1,0,.42c0,.21-.09.44-.14.69s-.15.61-.28,1.08-.23.92-.33,1.33a9.4,9.4,0,0,0-.31,3.61,6.49,6.49,0,0,0,.72,2.28,2.83,2.83,0,0,0,1.33,1.19,4.85,4.85,0,0,0,1.56.42,5.93,5.93,0,0,0,1.47-.11c1.17-.25,2.4-1.29,3.69-3.14A23.33,23.33,0,0,0,182.61,91v-.08C182.66,90.77,182.56,90.7,182.3,90.73Zm-28.64,1.75q-1.82,6-2.81,6c-.46-.06-.63-.57-.53-1.56a30.08,30.08,0,0,1,1.05-4.64c.41-1.33.78-2.43,1.08-3.25s.58-1.53.89-2.17a4.66,4.66,0,0,1,.89-1.33,1.1,1.1,0,0,1,.69-.28.45.45,0,0,1,.5.5,22.56,22.56,0,0,1-1.19,5C153.93,91.58,153.81,92,153.66,92.48Z" transform="translate(26.32 17.71)" style="fill:#fff"/><rect x="188.92" y="89.51" width="6.26" height="6.26" rx="0.88" ry="0.88" style="fill:#fff"/><rect x="198.58" y="91.85" width="7.67" height="7.67" rx="1.08" ry="1.08" style="fill:#fff"/><rect x="207.5" y="82.3" width="9.08" height="9.08" rx="1.28" ry="1.28" style="fill:#fff"/></g></svg>