<?xml version="1.0" encoding="utf-8"?>
<!-- Generator: Adobe Illustrator 27.2.0, SVG Export Plug-In . SVG Version: 6.00 Build 0)  -->
<svg version="1.1" id="Layer_1" xmlns="http://www.w3.org/2000/svg" xmlns:xlink="http://www.w3.org/1999/xlink" x="0px" y="0px"
	 viewBox="0 0 131.2 37.8" style="enable-background:new 0 0 131.2 37.8;" xml:space="preserve">
<style type="text/css">
	.st0{fill:#FFFFFF;}
</style>
<path class="st0" d="M123.2,27.7c-0.3,0-0.6,0.1-0.8,0.3c-2.1,5.4-3.7,8.1-4.9,7.9c-0.4,0-0.6-0.4-0.6-1c0-0.9,0.1-1.7,0.3-2.5
	c0.2-1.1,0.5-2.1,0.8-3.2s0.6-2.3,0.9-3.6s0.6-2.4,0.8-3.1c0.1-0.5-0.1-1-0.5-1.3c-0.6-0.3-1.3-0.3-1.9-0.1
	c-3.6,0.8-6.3,3.9-8.3,9.4c0.6-4.2,1-6.6,1.1-7.2c0.2-1.1,0.4-1.8,0.6-2.1c-0.6-0.1-1.2-0.1-1.8-0.1c-1.2,0-2.3,0.1-3.4,0.3
	c-1.3,0.2-1.9,0.5-2,0.9c-0.2,1.9-0.2,3.9-0.4,5.9s-0.3,3.7-0.4,5.3c-0.4,0.6-0.8,1.2-1.2,1.7c-0.5,0.6-1,0.8-1.4,0.8
	c-1-0.2-0.4-3,1.5-8.6c1.4-4.3,0.7-6.2-5.2-6.2c-1.9,0-3.8,0.6-5.5,1.7c-2.6,1.6-4.5,4.1-5.3,7c-0.1,0.3-0.2,0.6-0.2,0.9
	c-0.2,0.5-0.5,0.9-0.8,1.4c-0.4,0.7-1,1.4-1.6,1.9c-0.3,0.2-0.7,0.4-1.1,0.3c-1-0.2-2.3-1-3.7-2.6c-1-1.1-2.9-3-3.8-4.1
	c5.6-10.2,20.7-12.5,25.1-12.5c1.4,0,1.4-6.2,0-6.2c-17.6,0-25.4,14.8-27.1,20c0.1-1.7,0.3-2.7,0.5-4.9s0.4-3.8,0.5-5.1
	s0.3-2.7,0.4-4.4s0.3-2.9,0.4-3.9s0.2-2,0.4-3.1s0.2-2,0.3-2.7L74.9,3C75,2.3,75,1.8,75.1,1.4c0.2-0.5,0-1-0.5-1.2
	c-0.1,0-0.1-0.1-0.2-0.1C74.1,0,73.8,0,73.5,0c-0.3,0-0.6,0.1-0.9,0.3c-0.3,0.2-0.6,0.6-0.7,0.9c-2.5,5.8-4.5,14.9-6.1,27.2
	c-0.8,2.4-2.3,4.4-4.3,6c-1.5,1.3-3.4,1.9-5.3,1.9c-1.3-0.2-2.5-1.1-2.8-2.4c-0.6-1.8-0.7-3.7-0.2-5.5c0.9-4.1,2-6.2,3.3-6.2
	c0.9,0,0.9,1.5,0.1,4.6c-0.7,2.2-1.6,3.7-2.8,4.4c-0.4,0.2-0.6,0.5-0.5,0.6s0.4,0.2,0.9,0c2-0.5,3.8-1.3,5.6-2.3
	c1.4-0.7,2.4-1.9,3-3.3c0.3-1.2-0.2-2.5-1.3-3.2c-1.2-1-2.8-1.5-4.3-1.5c-1.7-0.1-3.5,0.3-5.1,1l0.1-0.2c2.5-3.7,4.4-7.8,5.8-12
	c1.2-3.8,0.8-6.6-0.9-8.3c-0.9-0.6-1.9-1.1-2.9-1.2C51.7,0,48.9-0.8,51,1.9c0.3,0.5,0.5,1,0.7,1.6c0.4,2.5,0.3,5-0.5,7.5
	c-0.8,3.3-2,6.5-3.4,9.6c-1.4,3.1-3.1,6-5,8.8c-1.4,2.1-3.1,4-5.2,5.4c-0.1-0.2-0.1-0.4-0.1-0.7c0-0.5,0-1.1,0-1.6
	c0-0.4,0-0.8,0.1-1.3c0.4-2.6,0.9-5.4,1.5-8.3c0.6-2.9,1.2-5.6,1.8-7.9c0.4-1.5,0.7-2.6,0.8-3.3c0.2-0.5,0.1-1.1-0.2-1.6
	c-0.5-0.5-1-0.9-1.7-1.2c-0.5-0.3-1.2-0.6-2-1.1c-1.7-1-1.8-0.9-2.2,0.8s-1.3,3.7-2.4,6.6C31.9,18,30.7,21,29.3,24
	c-1.2,2.7-2.5,5.3-4,7.8C24,34,23,35.1,22.2,35.1c-0.2,0-0.3-0.2-0.3-0.3c-0.1-0.2-0.1-0.5-0.1-0.7c0-0.5,0.1-1.1,0.1-1.6
	c0.1-0.4,0.1-0.8,0.2-1.3c0.3-1.7,0.8-3.8,1.4-6.1s1.2-4.7,1.9-7s1.2-4.2,1.6-5.8c0.5-1.3,0.9-2.7,1.1-4.1c0.1-0.8-0.4-1.5-1.1-1.7
	c-0.7-0.3-1.7-1-3.1-1.8c-0.7-0.5-1.7-0.6-2.6-0.2c-2.7,1-5.3,2.1-8.1,3.4c-2.9,1.4-5.7,2.9-8.4,4.7c-2.4,1.6-3.9,3-4.6,4.3
	c-0.8,1.5-0.7,3.3,0.2,4.8c0.5,0.9,1.2,1.6,2,2.2c3.2,2.2,2.2,0.9,2.5-1.6c0.1-0.9,0.4-1.8,0.9-2.6c1.6-2.4,3.6-4.5,6-6.2
	c3-2.3,6.2-4.2,9.7-5.6c-0.7,2.4-1.3,5-2.1,7.8s-1.5,5.5-2.1,8.1s-1.1,4.8-1.4,6.5c-0.2,0.8-0.2,1.6-0.2,2.4
	c0.1,0.8,0.4,1.6,0.9,2.2c0.5,0.7,1.2,1.3,1.9,1.8c0.7,0.4,1.5,0.7,2.3,0.7c1.7-0.1,3.3-1.2,4.9-3.4c1.7-2.4,3.2-5.1,4.4-7.8
	c1.3-3.1,2.5-6.1,3.5-9c-0.5,2.4-0.9,4.7-1.3,7s-0.7,4.3-0.9,6.1c-0.1,0.8-0.1,1.6-0.1,2.4c0.1,0.8,0.5,1.6,1,2.3
	c0.5,0.7,1.2,1.3,2,1.7c0.8,0.4,1.6,0.7,2.4,0.7c1.7,0,3.9-1.5,6.8-4.4c0.7-0.7,1.4-1.5,2.1-2.3c-0.2,1.9,0.6,3.8,2.1,4.9
	c1.9,1.4,4.2,2.2,6.6,2.2c2.8,0.1,5.6-0.8,7.7-2.7c1.2-1,2.2-2.2,3.1-3.5c-0.3,1.7-0.3,3.4-0.2,5.1c0,0.2,0.6,0.5,1.8,0.6
	c1.2,0.2,2.4,0.2,3.5,0.2c1.1,0,1.7-0.1,1.7-0.3c-0.1-0.7-0.2-2.2-0.3-3.8c2.4,2.5,5.2,4.4,7.4,4.2c1.3-0.1,2.8-1.1,4.5-3.1
	c0.4-0.5,0.7-1,1.1-1.6c0.1,0.9,0.5,1.7,1.1,2.4c1.1,1.3,2.7,2,4.4,1.9c1.7-0.2,3.1-1.6,4.1-4.2c0.3-0.8,0.7-1.6,1.1-2.4
	c0.7-1.1,0.5-0.4,0.4,0.1c-0.3,1.7-0.7,4,0.3,5.5c0.5,0.9,1.5,1.4,2.5,1.3c1-0.1,2.2-1,3.4-2.6c-0.1,0.5-0.1,1,0,1.5
	c0.1,0.2,0.6,0.5,1.6,0.6c0.9,0.1,1.9,0.2,2.9,0.2c0.9,0,1.4-0.1,1.4-0.3c0.8-3.5,1.4-6.5,4.3-10.3h0.2c0,0.1,0,0.3,0,0.4
	c0,0.2-0.1,0.5-0.1,0.7c-0.1,0.2-0.1,0.6-0.3,1.1s-0.2,0.9-0.3,1.3c-0.3,1.2-0.4,2.4-0.3,3.6c0.1,0.8,0.3,1.6,0.7,2.3
	c0.3,0.5,0.8,0.9,1.3,1.2c0.5,0.2,1,0.4,1.6,0.4c0.5,0,1,0,1.5-0.1c1.2-0.2,2.4-1.3,3.7-3.1c1.4-2,2.4-4.2,3.1-6.5v-0.1
	C123.6,27.7,123.5,27.7,123.2,27.7z M94.6,29.5c-1.2,4-2.1,6-2.8,6c-0.5-0.1-0.6-0.6-0.5-1.6c0.2-1.6,0.6-3.1,1.1-4.6
	c0.4-1.3,0.8-2.4,1.1-3.2s0.6-1.5,0.9-2.2c0.2-0.5,0.5-0.9,0.9-1.3c0.2-0.2,0.4-0.3,0.7-0.3c0.2,0,0.5,0.1,0.5,0.4v0.1
	c-0.2,1.7-0.6,3.4-1.2,5C94.9,28.6,94.7,29,94.6,29.5z"/>
<path class="st0" d="M104.4,8.8h4.5c0.5,0,0.9,0.4,0.9,0.9v4.5c0,0.5-0.4,0.9-0.9,0.9h-4.5c-0.5,0-0.9-0.4-0.9-0.9V9.7
	C103.5,9.2,103.9,8.8,104.4,8.8z"/>
<path class="st0" d="M114.3,11.1h5.5c0.6,0,1.1,0.5,1.1,1.1v5.5c0,0.6-0.5,1.1-1.1,1.1h-5.5c-0.6,0-1.1-0.5-1.1-1.1v-5.5
	C113.2,11.6,113.7,11.1,114.3,11.1z"/>
<path class="st0" d="M123.4,1.6h6.5c0.7,0,1.3,0.6,1.3,1.3v6.5c0,0.7-0.6,1.3-1.3,1.3h-6.5c-0.7,0-1.3-0.6-1.3-1.3V2.8
	C122.1,2.1,122.7,1.6,123.4,1.6z"/>
</svg>
