<?xml version="1.0" encoding="UTF-8"?><svg xmlns="http://www.w3.org/2000/svg" viewBox="0 0 237.82931 208.49755"><defs><style>.j{fill:#fff;}.k,.l{fill:#333;}.l{stroke:#fff;stroke-miterlimit:10;stroke-width:2.81515px;}</style></defs><g id="a"/><g id="b"><g id="c"><g><g><path class="l" d="M40.75717,1.866H197.16467c13.59778,0,24.63745,11.03967,24.63745,24.63745V181.99361c0,13.59805-11.03989,24.63794-24.63794,24.63794H40.75766c-13.59805,0-24.63794-11.03989-24.63794-24.63794V26.50346C16.11972,12.90568,27.15939,1.866,40.75717,1.866Z" transform="translate(223.2097 -14.71215) rotate(90)"/><rect class="l" x="26.28678" y="11.56603" width="185.34778" height="185.36562" rx="14.70659" ry="14.70659"/><path class="k" d="M96.83538-11.74296h44.15854c6.0311,0,10.92759,4.89649,10.92759,10.92759V215.15876c0,6.0311-4.89649,10.92759-10.92759,10.92759h-44.15907c-6.03081,0-10.92706-4.89625-10.92706-10.92706V-.81537c0-6.0311,4.89649-10.92759,10.92759-10.92759Z" transform="translate(226.08635 -11.74296) rotate(90)"/><rect class="j" x="8.04254" y="81.7286" width="222.8424" height="50.69562" rx="6.93736" ry="6.93736"/><g id="d"><path id="e" class="j" d="M111.82576,43.05613h-9.70452c-.6244-.09823-1.1342-.55152-1.30476-1.16015-.12931-.80306,.20709-1.61011,.86849-2.08358l.69641-.62693c.29327-.25853,.58008-.53968,.88385-.77882l4.31096-3.68403,.64632-.53806c.43679-.33735,.85559-.69736,1.25467-1.07855,.68334-.67581,1.06048-1.60174,1.04381-2.56267-.01308-.64717-.30277-1.25774-.79578-1.6772-.73473-.61026-1.68469-.89808-2.63457-.79821-1.36023,.15355-2.60675,.83218-3.47398,1.8913-.45534,.5564-1.27552,.63833-1.83192,.18299s-.63833-1.27552-.18299-1.83192l.00808-.00969c1.31246-1.58547,3.19143-2.59669,5.23763-2.81877,1.64102-.17381,3.28195,.3292,4.54364,1.39282,1.05395,.88574,1.68045,2.17869,1.72245,3.55477,.05781,1.68473-.58306,3.31847-1.77092,4.51456-.46481,.44596-.94956,.8693-1.45423,1.27002l-.60593,.48474-4.30611,3.67192-.09857,.10018h6.94796c.71898-.01993,1.318,.54676,1.33793,1.26575,.01941,.70022-.51853,1.29036-1.21755,1.3357-.0401,.0021-.08028,.0021-.12038,0v-.01616Z"/><path id="f" class="j" d="M136.47324,25.43902c.72328,.00089,1.30888,.58795,1.30799,1.31123s-.58795,1.30888-1.31123,1.30799c-.72202-.00089-1.3071-.58598-1.30799-1.30799-.00134-.72283,.58355-1.30989,1.30637-1.31122h.00485"/><path id="g" class="j" d="M121.68136,25.42043c.71391-.09593,1.37041,.40504,1.46634,1.11894,.09593,.71391-.40504,1.37041-1.11895,1.46634-3.44571,.932-5.48349,4.48084-4.55149,7.92655,.60005,2.21847,2.33302,3.95144,4.55149,4.55149,.70989,.09883,1.20525,.75443,1.10642,1.46432s-.75443,1.20525-1.46432,1.10642h-.02343c-.10769-.01387-.21325-.04101-.31427-.08079-4.83115-1.33284-7.66707-6.32974-6.33423-11.16088,.84946-3.07906,3.25517-5.48477,6.33423-6.33424,.1132-.03118,.22998-.04747,.3474-.04847"/><path id="h" class="j" d="M125.84448,25.41801c.1173-.00124,.23413,.0151,.34659,.04847,4.83115,1.32948,7.6698,6.32366,6.34032,11.1548-.84844,3.08309-3.25723,5.49188-6.34032,6.34032-.70071,.16034-1.39871-.27772-1.55905-.97842-.14975-.65441,.22282-1.31536,.86022-1.52607,3.44594-.94138,5.47629-4.49801,4.53491-7.94395-.60303-2.20739-2.32751-3.93188-4.53491-4.53491-.69433-.18078-1.11065-.89019-.92987-1.58452,.15052-.57811,.67589-.97906,1.27323-.97169l.00888-.00404Z"/><path id="i" class="j" d="M136.48374,43.04805c-.71577,.00134-1.2976-.57687-1.30072-1.29264v-9.57849c.03581-.71837,.6472-1.27169,1.36557-1.23588,.66827,.03332,1.20256,.56761,1.23588,1.23588v9.56798c.00627,.71388-.56737,1.29767-1.28125,1.30394h-.01948v-.0008Zm6.68943-16.64278c.00313,.86606-.69642,1.57067-1.56248,1.57379-.86606,.00312-1.57067-.69642-1.5738-1.56248-.01034-.85516,.67342-1.55734,1.52855-1.56975h.04524c.84441-.0185,1.54395,.65102,1.56248,1.49543v.06302m-.25853,0c.02221-.70419-.53065-1.29304-1.23484-1.31525h-.06831c-.71689-.01126-1.30735,.5604-1.31931,1.27728-.00318,.016-.00318,.03247,0,.04847-.03447,.7238,.52434,1.33849,1.24814,1.37296,.72379,.03447,1.33849-.52434,1.37296-1.24814l.00136-.04403v-.05332c.00412-.01177,.00412-.02459,0-.03636v-.00161Zm-.84991,.28196l.39183,.59785h-.38294l-.3474-.5316h-.39506v.5316h-.38052v-1.74668h.72711c.46293,0,.73923,.24237,.73923,.60916,.01259,.23797-.12968,.45692-.35224,.5421m-.40961-.23268c.24722,0,.39183-.11391,.39183-.31023s-.14058-.30296-.39183-.30296h-.32881v.61643l.32881-.00323Z"/></g><g><path class="j" d="M50.52534,55.36748v4.63574h6.66797v1.63379h-6.66797v5.37598h-1.89941v-13.29785h9.38379v1.65234h-7.48438Z"/><path class="j" d="M59.45503,60.36406c0-3.89453,3.00098-6.80127,7.08594-6.80127,4.0459,0,7.04785,2.8877,7.04785,6.80127,0,3.91309-3.00195,6.80078-7.04785,6.80078-4.08496,0-7.08594-2.90625-7.08594-6.80078Zm12.23438,0c0-2.94482-2.2041-5.11035-5.14844-5.11035-2.98242,0-5.18652,2.16553-5.18652,5.11035,0,2.94434,2.2041,5.11035,5.18652,5.11035,2.94434,0,5.14844-2.16602,5.14844-5.11035Z"/><path class="j" d="M75.28218,65.49296l.70215-1.48145c.98828,.89258,2.67871,1.53857,4.38867,1.53857,2.29883,0,3.28613-.89258,3.28613-2.05176,0-3.24854-8.05469-1.19678-8.05469-6.13574,0-2.05176,1.5957-3.7998,5.0918-3.7998,1.55762,0,3.17188,.41797,4.27441,1.17822l-.62695,1.51953c-1.15918-.74072-2.46973-1.08301-3.64746-1.08301-2.26074,0-3.22949,.9502-3.22949,2.10889,0,3.24854,8.05469,1.21582,8.05469,6.09814,0,2.03271-1.63379,3.78027-5.14844,3.78027-2.03223,0-4.02734-.68359-5.09082-1.67188Z"/><path class="j" d="M87.08101,65.49296l.70215-1.48145c.98828,.89258,2.67871,1.53857,4.38867,1.53857,2.29883,0,3.28613-.89258,3.28613-2.05176,0-3.24854-8.05469-1.19678-8.05469-6.13574,0-2.05176,1.5957-3.7998,5.0918-3.7998,1.55762,0,3.17188,.41797,4.27441,1.17822l-.62695,1.51953c-1.15918-.74072-2.46973-1.08301-3.64746-1.08301-2.26074,0-3.22949,.9502-3.22949,2.10889,0,3.24854,8.05469,1.21582,8.05469,6.09814,0,2.03271-1.63379,3.78027-5.14844,3.78027-2.03223,0-4.02734-.68359-5.09082-1.67188Z"/><path class="j" d="M113.67964,63.68828h-7.06738l-1.46289,3.32471h-1.95605l6.02148-13.29785h1.88086l6.04102,13.29785h-1.99414l-1.46289-3.32471Zm-.66504-1.51953l-2.86914-6.51611-2.86816,6.51611h5.7373Z"/><path class="j" d="M137.20112,53.71513l-4.44531,13.29785h-1.99512l-3.62793-10.61963-3.62891,10.61963h-2.03223l-4.44629-13.29785h1.95703l3.59082,10.80908,3.74219-10.80908h1.74805l3.66602,10.86621,3.66699-10.86621h1.80469Z"/><path class="j" d="M147.57612,63.68828h-7.06738l-1.46289,3.32471h-1.95605l6.02148-13.29785h1.88086l6.04102,13.29785h-1.99414l-1.46289-3.32471Zm-.66504-1.51953l-2.86914-6.51611-2.86816,6.51611h5.7373Z"/><path class="j" d="M161.9023,67.01298l-2.86914-4.08447c-.26562,.01904-.55078,.03809-.83594,.03809h-3.28613v4.04639h-1.89941v-13.29785h5.18555c3.45801,0,5.54785,1.74756,5.54785,4.63525,0,2.05176-1.06445,3.5332-2.92578,4.19824l3.15332,4.46436h-2.07031Zm-.05762-8.6626c0-1.8999-1.27246-2.98291-3.7041-2.98291h-3.22949v5.98438h3.22949c2.43164,0,3.7041-1.10205,3.7041-3.00146Z"/><path class="j" d="M166.82417,53.71513h5.60352c4.27441,0,7.18164,2.69727,7.18164,6.64893,0,3.95117-2.90723,6.64893-7.18164,6.64893h-5.60352v-13.29785Zm5.49023,11.64502c3.28613,0,5.39453-2.01367,5.39453-4.99609s-2.1084-4.99658-5.39453-4.99658h-3.59082v9.99268h3.59082Z"/><path class="j" d="M181.30171,65.49296l.70215-1.48145c.98828,.89258,2.67871,1.53857,4.38867,1.53857,2.29883,0,3.28613-.89258,3.28613-2.05176,0-3.24854-8.05469-1.19678-8.05469-6.13574,0-2.05176,1.5957-3.7998,5.0918-3.7998,1.55762,0,3.17188,.41797,4.27441,1.17822l-.62695,1.51953c-1.15918-.74072-2.46973-1.08301-3.64746-1.08301-2.26074,0-3.22949,.9502-3.22949,2.10889,0,3.24854,8.05469,1.21582,8.05469,6.09814,0,2.03271-1.63379,3.78027-5.14844,3.78027-2.03223,0-4.02734-.68359-5.09082-1.67188Z"/></g><g><path class="k" d="M92.31831,94.89726c0,2.49658-1.87305,4.04932-4.86621,4.04932h-2.25684v3.08936h-2.59375v-11.20459h4.85059c2.99316,0,4.86621,1.55273,4.86621,4.06592Zm-2.62598,0c0-1.23291-.7998-1.95312-2.38477-1.95312h-2.1123v3.88965h2.1123c1.58496,0,2.38477-.72021,2.38477-1.93652Z"/><path class="k" d="M101.29292,102.03593l-2.16113-3.12109h-2.38477v3.12109h-2.59375v-11.20459h4.85059c2.99316,0,4.86621,1.55273,4.86621,4.06592,0,1.68066-.84863,2.91309-2.30566,3.53711l2.51367,3.60156h-2.78516Zm-2.43359-9.0918h-2.1123v3.90576h2.1123c1.58496,0,2.38477-.73633,2.38477-1.95264,0-1.23291-.7998-1.95312-2.38477-1.95312Z"/><path class="k" d="M105.20894,96.43388c0-3.32959,2.59375-5.79443,6.13086-5.79443,3.52148,0,6.12988,2.44873,6.12988,5.79443,0,3.34521-2.6084,5.79395-6.12988,5.79395-3.53711,0-6.13086-2.46484-6.13086-5.79395Zm9.63574,0c0-2.12891-1.50391-3.58545-3.50488-3.58545s-3.50586,1.45654-3.50586,3.58545c0,2.12842,1.50488,3.58545,3.50586,3.58545s3.50488-1.45703,3.50488-3.58545Z"/><path class="k" d="M117.59273,100.5955l1.44043-1.729c.6084,.81641,1.28027,1.23242,2.08105,1.23242,1.04004,0,1.58398-.62402,1.58398-1.85645v-5.33008h-3.9375v-2.08105h6.51465v7.26709c0,2.76904-1.39258,4.12939-4.0332,4.12939-1.50488,0-2.83301-.57617-3.64941-1.63232Z"/><path class="k" d="M136.50874,99.95488v2.08105h-8.67578v-11.20459h8.46777v2.08105h-5.89062v2.43262h5.20215v2.01709h-5.20215v2.59277h6.09863Z"/><path class="k" d="M137.83394,96.43388c0-3.37744,2.59375-5.79443,6.08301-5.79443,1.93652,0,3.55273,.7041,4.60938,1.98486l-1.66406,1.53662c-.75293-.86475-1.69727-1.3125-2.81738-1.3125-2.09668,0-3.58594,1.47217-3.58594,3.58545,0,2.11279,1.48926,3.58545,3.58594,3.58545,1.12012,0,2.06445-.44824,2.81738-1.32861l1.66406,1.53662c-1.05664,1.29639-2.67285,2.00049-4.62598,2.00049-3.47266,0-6.06641-2.41699-6.06641-5.79395Z"/><path class="k" d="M152.47456,92.94414h-3.58496v-2.11279h9.76367v2.11279h-3.58594v9.0918h-2.59277v-9.0918Z"/><path class="k" d="M71.55073,121.23613l-.01562-6.72266-3.29785,5.53809h-1.16797l-3.28125-5.39404v6.57861h-2.43359v-11.20459h2.14551l4.19336,6.96289,4.12988-6.96289h2.12891l.03223,11.20459h-2.43359Z"/><path class="k" d="M84.01265,118.83525h-5.20117l-.99316,2.40088h-2.65723l4.99414-11.20459h2.56152l5.00977,11.20459h-2.7207l-.99316-2.40088Zm-.81543-1.96875l-1.77734-4.29004-1.77637,4.29004h3.55371Z"/><path class="k" d="M99.16597,110.03154v11.20459h-2.12891l-5.58594-6.80273v6.80273h-2.56152v-11.20459h2.14551l5.57031,6.80273v-6.80273h2.56055Z"/><path class="k" d="M109.19624,118.83525h-5.20117l-.99316,2.40088h-2.65723l4.99414-11.20459h2.56152l5.00977,11.20459h-2.7207l-.99316-2.40088Zm-.81543-1.96875l-1.77734-4.29004-1.77637,4.29004h3.55371Z"/><path class="k" d="M121.48433,115.45781h2.36914v4.5459c-1.23242,.92822-2.92871,1.42432-4.53027,1.42432-3.52051,0-6.11426-2.41699-6.11426-5.79395,0-3.37744,2.59375-5.79443,6.16309-5.79443,1.96875,0,3.60156,.67236,4.68945,1.93652l-1.66504,1.53662c-.81543-.86426-1.76074-1.26416-2.89648-1.26416-2.17676,0-3.66602,1.45654-3.66602,3.58545,0,2.09668,1.48926,3.58545,3.63379,3.58545,.7041,0,1.36035-.12842,2.0166-.48047v-3.28125Z"/><path class="k" d="M134.92476,119.15507v2.08105h-8.67578v-11.20459h8.46777v2.08105h-5.89062v2.43262h5.20215v2.01709h-5.20215v2.59277h6.09863Z"/><path class="k" d="M147.18159,121.23613l-.01562-6.72266-3.29785,5.53809h-1.16797l-3.28125-5.39404v6.57861h-2.43359v-11.20459h2.14551l4.19336,6.96289,4.12988-6.96289h2.12891l.03223,11.20459h-2.43359Z"/><path class="k" d="M160.94038,119.15507v2.08105h-8.67578v-11.20459h8.46777v2.08105h-5.89062v2.43262h5.20215v2.01709h-5.20215v2.59277h6.09863Z"/><path class="k" d="M173.2773,110.03154v11.20459h-2.12891l-5.58594-6.80273v6.80273h-2.56152v-11.20459h2.14551l5.57031,6.80273v-6.80273h2.56055Z"/><path class="k" d="M178.24995,112.14433h-3.58496v-2.11279h9.76367v2.11279h-3.58594v9.0918h-2.59277v-9.0918Z"/></g></g><g><path class="j" d="M98.44234,146.79863v11.89893h-2.75391v-4.87842h-5.40527v4.87842h-2.75391v-11.89893h2.75391v4.69189h5.40527v-4.69189h2.75391Z"/><path class="j" d="M101.26558,146.79863h2.75391v11.89893h-2.75391v-11.89893Z"/><path class="j" d="M114.88179,152.56132h2.51562v4.82715c-1.30859,.98633-3.11035,1.51318-4.81055,1.51318-3.73926,0-6.49316-2.56689-6.49316-6.15332,0-3.58691,2.75391-6.15332,6.54395-6.15332,2.09082,0,3.8252,.71387,4.98047,2.05664l-1.76758,1.63184c-.86719-.91797-1.87012-1.34277-3.07715-1.34277-2.31152,0-3.89258,1.54688-3.89258,3.80762,0,2.22656,1.58105,3.80762,3.85938,3.80762,.74805,0,1.44434-.13623,2.1416-.51025v-3.48438Z"/><path class="j" d="M130.86128,146.79863v11.89893h-2.75391v-4.87842h-5.40527v4.87842h-2.75391v-11.89893h2.75391v4.69189h5.40527v-4.69189h2.75391Z"/><path class="j" d="M133.68452,146.79863h2.75391v9.65527h5.96582v2.24365h-8.71973v-11.89893Z"/><path class="j" d="M148.43941,154.48173v4.21582h-2.75391v-4.24951l-4.60645-7.64941h2.92383l3.17871,5.28662,3.17871-5.28662h2.70312l-4.62402,7.68311Z"/><path class="j" d="M54.69331,179.09746l-2.29492-3.31445h-2.53223v3.31445h-2.75391v-11.89893h5.15039c3.17871,0,5.16699,1.64893,5.16699,4.31787,0,1.78467-.90039,3.09326-2.44727,3.75635l2.66895,3.82471h-2.95801Zm-2.58398-9.65479h-2.24316v4.14746h2.24316c1.68262,0,2.5332-.78223,2.5332-2.07373,0-1.30908-.85059-2.07373-2.5332-2.07373Z"/><path class="j" d="M68.82027,176.88749v2.20996h-9.21289v-11.89893h8.99219v2.20996h-6.25586v2.5835h5.52441v2.14209h-5.52441v2.75342h6.47656Z"/><path class="j" d="M70.23237,173.14824c0-3.58691,2.75391-6.15381,6.45898-6.15381,2.05664,0,3.77344,.74805,4.89551,2.10791l-1.76758,1.63184c-.79883-.91797-1.80176-1.39355-2.99219-1.39355-2.22656,0-3.80762,1.56348-3.80762,3.80762,0,2.24365,1.58105,3.80762,3.80762,3.80762,1.19043,0,2.19336-.47607,2.99219-1.41113l1.76758,1.63184c-1.12207,1.37695-2.83887,2.125-4.91211,2.125-3.68848,0-6.44238-2.56689-6.44238-6.15332Z"/><path class="j" d="M82.43843,173.14824c0-3.53564,2.75391-6.15381,6.50977-6.15381,3.74023,0,6.51074,2.60107,6.51074,6.15381,0,3.55225-2.77051,6.15332-6.51074,6.15332-3.75586,0-6.50977-2.61768-6.50977-6.15332Zm10.23242,0c0-2.26074-1.59766-3.80762-3.72266-3.80762-2.12402,0-3.72266,1.54688-3.72266,3.80762s1.59863,3.80762,3.72266,3.80762c2.125,0,3.72266-1.54688,3.72266-3.80762Z"/><path class="j" d="M108.36128,179.09746l-.0166-7.13916-3.50195,5.88135h-1.24023l-3.48535-5.72852v6.98633h-2.58301v-11.89893h2.27734l4.4541,7.39453,4.38477-7.39453h2.26074l.03418,11.89893h-2.58398Z"/><path class="j" d="M124.59566,179.09746l-.0166-7.13916-3.50195,5.88135h-1.24023l-3.48535-5.72852v6.98633h-2.58301v-11.89893h2.27734l4.4541,7.39453,4.38477-7.39453h2.26074l.03418,11.89893h-2.58398Z"/><path class="j" d="M139.21577,176.88749v2.20996h-9.21289v-11.89893h8.99219v2.20996h-6.25586v2.5835h5.52441v2.14209h-5.52441v2.75342h6.47656Z"/><path class="j" d="M152.32319,167.19853v11.89893h-2.26074l-5.93262-7.22412v7.22412h-2.71973v-11.89893h2.27734l5.91602,7.22461v-7.22461h2.71973Z"/><path class="j" d="M155.14644,167.19853h5.40527c3.89258,0,6.56152,2.3457,6.56152,5.94971,0,3.60352-2.66895,5.94922-6.56152,5.94922h-5.40527v-11.89893Zm5.26953,9.63818c2.3623,0,3.90918-1.41064,3.90918-3.68848s-1.54688-3.68896-3.90918-3.68896h-2.51562v7.37744h2.51562Z"/><path class="j" d="M178.40132,176.88749v2.20996h-9.21289v-11.89893h8.99219v2.20996h-6.25586v2.5835h5.52441v2.14209h-5.52441v2.75342h6.47656Z"/><path class="j" d="M180.59566,167.19853h5.40527c3.89258,0,6.56152,2.3457,6.56152,5.94971,0,3.60352-2.66895,5.94922-6.56152,5.94922h-5.40527v-11.89893Zm5.26953,9.63818c2.3623,0,3.90918-1.41064,3.90918-3.68848s-1.54688-3.68896-3.90918-3.68896h-2.51562v7.37744h2.51562Z"/></g></g></g></g></svg>