<svg id="Layer_1" data-name="Layer 1" xmlns="http://www.w3.org/2000/svg" width="241.66" height="208.579" viewBox="0 0 241.66 208.579"><defs><style>.cls-1,.cls-2{fill:#333;}.cls-1{stroke:#fff;stroke-miterlimit:10;stroke-width:2.815px;}.cls-3{fill:#fff;}</style></defs><path class="cls-1" d="M42.673,1.907H199.08a24.637,24.637,0,0,1,24.637,24.637v155.49a24.638,24.638,0,0,1-24.638,24.638H42.673a24.638,24.638,0,0,1-24.638-24.638V26.544A24.637,24.637,0,0,1,42.673,1.907Z" transform="translate(225.166 -16.587) rotate(90)"/><rect class="cls-1" x="28.202" y="11.607" width="185.348" height="185.366" rx="14.707"/><path class="cls-2" d="M98.751-11.7h44.159A10.928,10.928,0,0,1,153.837-.775V215.2a10.928,10.928,0,0,1-10.928,10.928H98.75A10.927,10.927,0,0,1,87.823,215.2V-.775A10.928,10.928,0,0,1,98.751-11.7Z" transform="translate(228.042 -13.618) rotate(90)"/><rect class="cls-3" x="9.958" y="81.769" width="222.842" height="50.696" rx="6.937"/><g id="Group_6414" data-name="Group 6414"><path id="Path_31743" data-name="Path 31743" class="cls-3" d="M113.741,43.1h-9.7a1.615,1.615,0,0,1-1.305-1.16,2.146,2.146,0,0,1,.868-2.084l.7-.627c.293-.258.58-.539.884-.779l4.311-3.684.646-.538a15.882,15.882,0,0,0,1.255-1.078,3.519,3.519,0,0,0,1.043-2.563,2.26,2.26,0,0,0-.8-1.677,3.545,3.545,0,0,0-2.635-.8A5.249,5.249,0,0,0,105.532,30a1.3,1.3,0,1,1-2.015-1.649l.008-.01a7.91,7.91,0,0,1,5.238-2.818,6.058,6.058,0,0,1,4.543,1.392,4.838,4.838,0,0,1,1.723,3.555,6.109,6.109,0,0,1-1.771,4.515q-.7.669-1.454,1.27l-.606.484-4.306,3.672-.1.1h6.948a1.3,1.3,0,0,1,.12,2.6q-.06,0-.12,0Z"/><path id="Path_31744" data-name="Path 31744" class="cls-3" d="M138.389,25.48a1.31,1.31,0,1,1-.005,0h.005"/><path id="Path_31745" data-name="Path 31745" class="cls-3" d="M123.6,25.461a1.3,1.3,0,0,1,.347,2.585,6.464,6.464,0,0,0,0,12.479,1.3,1.3,0,1,1-.358,2.57h-.023a1.307,1.307,0,0,1-.314-.081,9.074,9.074,0,0,1,0-17.5,1.351,1.351,0,0,1,.347-.048"/><path id="Path_31746" data-name="Path 31746" class="cls-3" d="M127.76,25.459a1.19,1.19,0,0,1,.346.048,9.072,9.072,0,0,1,0,17.5,1.3,1.3,0,0,1-.7-2.5,6.468,6.468,0,0,0,0-12.479,1.3,1.3,0,0,1,.343-2.556Z"/><path id="Path_31747" data-name="Path 31747" class="cls-3" d="M138.4,43.089a1.3,1.3,0,0,1-1.3-1.293V32.218a1.3,1.3,0,0,1,2.6,0v9.568a1.294,1.294,0,0,1-1.281,1.3h-.02Zm6.69-16.643a1.569,1.569,0,1,1-3.137.011,1.551,1.551,0,0,1,1.529-1.569h.045a1.53,1.53,0,0,1,1.563,1.495v.063m-.259,0a1.276,1.276,0,0,0-1.235-1.315h-.068a1.3,1.3,0,0,0-1.319,1.277.1.1,0,0,0,0,.049,1.312,1.312,0,0,0,2.621.124v-.1a.055.055,0,0,0,0-.036Zm-.85.282.392.6h-.383l-.347-.532h-.4v.532h-.38V25.579h.727c.463,0,.739.242.739.609a.548.548,0,0,1-.352.542m-.41-.232c.248,0,.392-.114.392-.311s-.14-.3-.392-.3h-.328V26.5Z"/></g><path class="cls-3" d="M52.441,55.408v4.636h6.668v1.634H52.441v5.376h-1.9v-13.3h9.383v1.652Z"/><path class="cls-3" d="M61.371,60.405a7.072,7.072,0,1,1,7.086,6.8A6.758,6.758,0,0,1,61.371,60.405Zm12.234,0a5.168,5.168,0,1,0-5.148,5.11A4.993,4.993,0,0,0,73.605,60.405Z"/><path class="cls-3" d="M77.2,65.534l.7-1.482a6.845,6.845,0,0,0,4.389,1.539c2.3,0,3.286-.893,3.286-2.052,0-3.248-8.055-1.2-8.055-6.136,0-2.051,1.6-3.8,5.092-3.8a7.815,7.815,0,0,1,4.274,1.178L86.259,56.3a6.874,6.874,0,0,0-3.647-1.083c-2.261,0-3.23.95-3.23,2.109,0,3.249,8.055,1.216,8.055,6.1,0,2.033-1.634,3.781-5.148,3.781A7.89,7.89,0,0,1,77.2,65.534Z"/><path class="cls-3" d="M89,65.534l.7-1.482a6.842,6.842,0,0,0,4.388,1.539c2.3,0,3.287-.893,3.287-2.052,0-3.248-8.055-1.2-8.055-6.136,0-2.051,1.6-3.8,5.092-3.8a7.815,7.815,0,0,1,4.274,1.178L98.058,56.3a6.877,6.877,0,0,0-3.647-1.083c-2.261,0-3.23.95-3.23,2.109,0,3.249,8.055,1.216,8.055,6.1,0,2.033-1.634,3.781-5.149,3.781A7.889,7.889,0,0,1,89,65.534Z"/><path class="cls-3" d="M115.6,63.729h-7.067l-1.463,3.325h-1.956l6.021-13.3h1.881l6.041,13.3h-1.994Zm-.665-1.52-2.869-6.516-2.868,6.516Z"/><path class="cls-3" d="M139.116,53.756l-4.445,13.3h-2l-3.628-10.62-3.629,10.62h-2.032l-4.446-13.3H120.9l3.59,10.809,3.742-10.809h1.749l3.666,10.866,3.667-10.866Z"/><path class="cls-3" d="M149.491,63.729h-7.067l-1.463,3.325h-1.956l6.021-13.3h1.881l6.041,13.3h-1.994Zm-.665-1.52-2.869-6.516-2.868,6.516Z"/><path class="cls-3" d="M163.817,67.054l-2.869-4.085c-.265.019-.551.038-.836.038h-3.286v4.047h-1.9v-13.3h5.185c3.458,0,5.548,1.747,5.548,4.635a4.2,4.2,0,0,1-2.926,4.2l3.154,4.465Zm-.057-8.663c0-1.9-1.273-2.983-3.7-2.983h-3.23v5.985h3.23C162.487,61.393,163.76,60.291,163.76,58.391Z"/><path class="cls-3" d="M168.739,53.756h5.6c4.274,0,7.181,2.7,7.181,6.649s-2.907,6.649-7.181,6.649h-5.6Zm5.49,11.645c3.287,0,5.395-2.014,5.395-5s-2.108-5-5.395-5h-3.59V65.4Z"/><path class="cls-3" d="M183.217,65.534l.7-1.482a6.845,6.845,0,0,0,4.389,1.539c2.3,0,3.286-.893,3.286-2.052,0-3.248-8.055-1.2-8.055-6.136,0-2.051,1.6-3.8,5.092-3.8a7.815,7.815,0,0,1,4.274,1.178l-.627,1.519a6.874,6.874,0,0,0-3.647-1.083c-2.261,0-3.23.95-3.23,2.109,0,3.249,8.055,1.216,8.055,6.1,0,2.033-1.634,3.781-5.148,3.781A7.89,7.89,0,0,1,183.217,65.534Z"/><path class="cls-2" d="M94.234,94.938c0,2.5-1.873,4.049-4.866,4.049H87.111v3.09H84.517v-11.2h4.851C92.361,90.872,94.234,92.425,94.234,94.938Zm-2.626,0c0-1.233-.8-1.953-2.385-1.953H87.111v3.89h2.112C90.808,96.875,91.608,96.154,91.608,94.938Z"/><path class="cls-2" d="M103.208,102.077l-2.161-3.121H98.663v3.121H96.069v-11.2h4.85c2.994,0,4.867,1.553,4.867,4.066a3.642,3.642,0,0,1-2.306,3.537l2.514,3.6Zm-2.433-9.092H98.663v3.906h2.112c1.585,0,2.385-.737,2.385-1.953C103.16,93.705,102.36,92.985,100.775,92.985Z"/><path class="cls-2" d="M107.125,96.475a6.14,6.14,0,1,1,6.13,5.794A5.8,5.8,0,0,1,107.125,96.475Zm9.635,0a3.506,3.506,0,1,0-3.505,3.585A3.418,3.418,0,0,0,116.76,96.475Z"/><path class="cls-2" d="M119.508,100.636l1.441-1.729a2.571,2.571,0,0,0,2.08,1.233c1.04,0,1.584-.624,1.584-1.857v-5.33h-3.937V90.872h6.514v7.267c0,2.769-1.392,4.13-4.033,4.13A4.509,4.509,0,0,1,119.508,100.636Z"/><path class="cls-2" d="M138.424,100v2.081h-8.676v-11.2h8.468v2.081h-5.891v2.433h5.2V97.4h-5.2V100Z"/><path class="cls-2" d="M139.749,96.475a6.169,6.169,0,0,1,10.692-3.81L148.777,94.2a3.6,3.6,0,0,0-2.817-1.313,3.586,3.586,0,1,0,0,7.171,3.57,3.57,0,0,0,2.817-1.329l1.664,1.537a6.159,6.159,0,0,1-10.692-3.793Z"/><path class="cls-2" d="M154.39,92.985h-3.585V90.872h9.763v2.113h-3.586v9.092H154.39Z"/><path class="cls-2" d="M73.466,121.277l-.015-6.722-3.3,5.538H68.985L65.7,114.7v6.579H63.27v-11.2h2.146l4.193,6.963,4.13-6.963h2.129l.032,11.2Z"/><path class="cls-2" d="M85.928,118.876h-5.2l-.993,2.4H77.077l4.994-11.2h2.561l5.01,11.2H86.921Zm-.815-1.969-1.778-4.29-1.776,4.29Z"/><path class="cls-2" d="M101.082,110.072v11.2H98.953l-5.586-6.8v6.8H90.805v-11.2h2.146l5.57,6.8v-6.8Z"/><path class="cls-2" d="M111.112,118.876h-5.2l-.994,2.4H102.26l4.994-11.2h2.562l5.01,11.2h-2.721Zm-.816-1.969-1.777-4.29-1.776,4.29Z"/><path class="cls-2" d="M123.4,115.5h2.37v4.546a7.735,7.735,0,0,1-4.53,1.424,5.766,5.766,0,0,1-6.114-5.794c0-3.377,2.593-5.794,6.163-5.794a5.973,5.973,0,0,1,4.689,1.936l-1.665,1.537a3.788,3.788,0,0,0-2.9-1.264,3.586,3.586,0,1,0-.033,7.171,4.116,4.116,0,0,0,2.016-.481Z"/><path class="cls-2" d="M136.84,119.2v2.081h-8.676v-11.2h8.468v2.081h-5.891v2.433h5.2V116.6h-5.2V119.2Z"/><path class="cls-2" d="M149.1,121.277l-.016-6.722-3.3,5.538h-1.168l-3.281-5.4v6.579H138.9v-11.2h2.146l4.193,6.963,4.13-6.963H151.5l.032,11.2Z"/><path class="cls-2" d="M162.855,119.2v2.081H154.18v-11.2h8.467v2.081h-5.89v2.433h5.2V116.6h-5.2V119.2Z"/><path class="cls-2" d="M175.192,110.072v11.2h-2.129l-5.585-6.8v6.8h-2.562v-11.2h2.146l5.57,6.8v-6.8Z"/><path class="cls-2" d="M180.165,112.186H176.58v-2.114h9.764v2.114h-3.586v9.091h-2.593Z"/><path class="cls-3" d="M100.358,146.84v11.9H97.6V153.86H92.2v4.878H89.445v-11.9H92.2v4.691H97.6V146.84Z"/><path class="cls-3" d="M103.181,146.84h2.754v11.9h-2.754Z"/><path class="cls-3" d="M116.8,152.6h2.516v4.827a8.209,8.209,0,0,1-4.811,1.512c-3.739,0-6.493-2.566-6.493-6.153s2.754-6.153,6.544-6.153a6.346,6.346,0,0,1,4.981,2.056l-1.768,1.632a4.027,4.027,0,0,0-3.077-1.343,3.809,3.809,0,1,0-.033,7.616,4.368,4.368,0,0,0,2.141-.51Z"/><path class="cls-3" d="M132.777,146.84v11.9h-2.754V153.86h-5.405v4.878h-2.754v-11.9h2.754v4.691h5.405V146.84Z"/><path class="cls-3" d="M135.6,146.84h2.753V156.5h5.966v2.243H135.6Z"/><path class="cls-3" d="M150.355,154.522v4.216H147.6v-4.249L143,146.84h2.924l3.179,5.286,3.178-5.286h2.7Z"/><path class="cls-3" d="M56.609,179.139l-2.3-3.315H51.782v3.315H49.028v-11.9h5.15c3.179,0,5.167,1.65,5.167,4.319a3.866,3.866,0,0,1-2.447,3.755l2.669,3.826Zm-2.584-9.656H51.782v4.148h2.243c1.683,0,2.533-.782,2.533-2.073C56.558,170.248,55.708,169.483,54.025,169.483Z"/><path class="cls-3" d="M70.736,176.929v2.21H61.523v-11.9h8.992v2.21H64.259v2.584h5.525v2.142H64.259v2.754Z"/><path class="cls-3" d="M72.148,173.189A6.551,6.551,0,0,1,83.5,169.144l-1.767,1.631a3.828,3.828,0,0,0-2.992-1.393,3.808,3.808,0,1,0,0,7.615,3.792,3.792,0,0,0,2.992-1.411l1.767,1.632a6.54,6.54,0,0,1-11.354-4.029Z"/><path class="cls-3" d="M84.354,173.189a6.521,6.521,0,1,1,6.51,6.154A6.158,6.158,0,0,1,84.354,173.189Zm10.232,0A3.723,3.723,0,1,0,90.864,177,3.629,3.629,0,0,0,94.586,173.189Z"/><path class="cls-3" d="M110.277,179.139,110.26,172l-3.5,5.882h-1.24l-3.485-5.729v6.987H99.45v-11.9h2.277l4.454,7.395,4.385-7.395h2.261l.034,11.9Z"/><path class="cls-3" d="M126.512,179.139,126.5,172l-3.5,5.882h-1.241l-3.485-5.729v6.987h-2.583v-11.9h2.277l4.455,7.395,4.385-7.395h2.261l.034,11.9Z"/><path class="cls-3" d="M141.132,176.929v2.21h-9.213v-11.9h8.992v2.21h-6.256v2.584h5.525v2.142h-5.525v2.754Z"/><path class="cls-3" d="M154.239,167.239v11.9h-2.26l-5.933-7.225v7.225h-2.72v-11.9H145.6l5.916,7.225v-7.225Z"/><path class="cls-3" d="M157.062,167.239h5.406c3.892,0,6.561,2.346,6.561,5.95s-2.669,5.95-6.561,5.95h-5.406Zm5.27,9.639c2.362,0,3.909-1.411,3.909-3.689s-1.547-3.689-3.909-3.689h-2.516v7.378Z"/><path class="cls-3" d="M180.317,176.929v2.21H171.1v-11.9H180.1v2.21h-6.256v2.584h5.524v2.142h-5.524v2.754Z"/><path class="cls-3" d="M182.512,167.239h5.405c3.893,0,6.562,2.346,6.562,5.95s-2.669,5.95-6.562,5.95h-5.405Zm5.269,9.639c2.363,0,3.909-1.411,3.909-3.689s-1.546-3.689-3.909-3.689h-2.515v7.378Z"/></svg>